<?xml version="1.0" encoding="UTF-8" standalone="no"?>
<!-- Created with Inkscape (http://www.inkscape.org/) -->

<svg
   xmlns:dc="http://purl.org/dc/elements/1.1/"
   xmlns:cc="http://creativecommons.org/ns#"
   xmlns:rdf="http://www.w3.org/1999/02/22-rdf-syntax-ns#"
   xmlns:svg="http://www.w3.org/2000/svg"
   xmlns="http://www.w3.org/2000/svg"
   xmlns:xlink="http://www.w3.org/1999/xlink"
   xmlns:sodipodi="http://sodipodi.sourceforge.net/DTD/sodipodi-0.dtd"
   xmlns:inkscape="http://www.inkscape.org/namespaces/inkscape"
   width="90.35833mm"
   height="60.790386mm"
   viewBox="0 0 90.358327 60.790386"
   version="1.1"
   id="svg8"
   sodipodi:docname="xtb_alt.svg"
   inkscape:version="0.92.4 5da689c313, 2019-01-14"
   inkscape:export-filename="/home/awvwgk/projects/talks/group1905/Figures/logo_xtb_var3.png"
   inkscape:export-xdpi="96"
   inkscape:export-ydpi="96">
  <defs
     id="defs2">
    <linearGradient
       inkscape:collect="always"
       id="linearGradient3465">
      <stop
         style="stop-color:#05386b;stop-opacity:1;"
         offset="0"
         id="stop3461" />
      <stop
         style="stop-color:#05386b;stop-opacity:0;"
         offset="1"
         id="stop3463" />
    </linearGradient>
    <linearGradient
       inkscape:collect="always"
       id="linearGradient3432">
      <stop
         style="stop-color:#c99609;stop-opacity:1;"
         offset="0"
         id="stop3428" />
      <stop
         style="stop-color:#c99609;stop-opacity:0;"
         offset="1"
         id="stop3430" />
    </linearGradient>
    <linearGradient
       inkscape:collect="always"
       id="linearGradient3320">
      <stop
         style="stop-color:#f9df83;stop-opacity:1;"
         offset="0"
         id="stop3316" />
      <stop
         style="stop-color:#f9df83;stop-opacity:0;"
         offset="1"
         id="stop3318" />
    </linearGradient>
    <linearGradient
       inkscape:collect="always"
       id="linearGradient2971">
      <stop
         style="stop-color:#04315c;stop-opacity:1;"
         offset="0"
         id="stop2967" />
      <stop
         style="stop-color:#04315c;stop-opacity:0;"
         offset="1"
         id="stop2969" />
    </linearGradient>
    <linearGradient
       inkscape:collect="always"
       id="linearGradient2574">
      <stop
         style="stop-color:#1e8cf5;stop-opacity:1;"
         offset="0"
         id="stop2570" />
      <stop
         style="stop-color:#1e8cf5;stop-opacity:0;"
         offset="1"
         id="stop2572" />
    </linearGradient>
    <radialGradient
       inkscape:collect="always"
       xlink:href="#linearGradient2574"
       id="radialGradient2576"
       cx="114.3257"
       cy="93.909531"
       fx="114.3257"
       fy="93.909531"
       r="10.440104"
       gradientTransform="matrix(1,0,0,1.2864112,0,-26.896743)"
       gradientUnits="userSpaceOnUse" />
    <radialGradient
       inkscape:collect="always"
       xlink:href="#linearGradient2971"
       id="radialGradient2973"
       cx="90.04258"
       cy="117.18011"
       fx="90.04258"
       fy="117.18011"
       r="21.529043"
       gradientTransform="matrix(1,0,0,1.1792344,0,-21.002705)"
       gradientUnits="userSpaceOnUse" />
    <radialGradient
       inkscape:collect="always"
       xlink:href="#linearGradient3320"
       id="radialGradient3322"
       cx="71.714516"
       cy="109.14708"
       fx="71.714516"
       fy="109.14708"
       r="9.8531237"
       gradientTransform="matrix(0.76983398,-0.01918053,0.03631619,1.4575949,12.542439,-49.282069)"
       gradientUnits="userSpaceOnUse" />
    <radialGradient
       inkscape:collect="always"
       xlink:href="#linearGradient3432"
       id="radialGradient3434"
       cx="55.954754"
       cy="123.10692"
       fx="55.954754"
       fy="123.10692"
       r="15.020215"
       gradientTransform="matrix(1,0,0,1.1669419,0,-20.551698)"
       gradientUnits="userSpaceOnUse" />
    <radialGradient
       inkscape:collect="always"
       xlink:href="#linearGradient3465"
       id="radialGradient3467"
       cx="92.982544"
       cy="117.40536"
       fx="92.982544"
       fy="117.40536"
       r="21.44842"
       gradientTransform="matrix(0.81308437,0,0,1.1865294,17.379891,-21.857537)"
       gradientUnits="userSpaceOnUse" />
  </defs>
  <sodipodi:namedview
     id="base"
     pagecolor="#ffffff"
     bordercolor="#666666"
     borderopacity="1.0"
     inkscape:pageopacity="0.0"
     inkscape:pageshadow="2"
     inkscape:zoom="1.979899"
     inkscape:cx="157.56229"
     inkscape:cy="83.641143"
     inkscape:document-units="mm"
     inkscape:current-layer="text12-5-7"
     showgrid="false"
     showguides="false"
     inkscape:snap-bbox="true"
     inkscape:snap-bbox-midpoints="true"
     inkscape:window-width="1366"
     inkscape:window-height="709"
     inkscape:window-x="0"
     inkscape:window-y="25"
     inkscape:window-maximized="1" />
  <metadata
     id="metadata5">
    <rdf:RDF>
      <cc:Work
         rdf:about="">
        <dc:format>image/svg+xml</dc:format>
        <dc:type
           rdf:resource="http://purl.org/dc/dcmitype/StillImage" />
        <dc:title />
      </cc:Work>
    </rdf:RDF>
  </metadata>
  <g
     inkscape:label="Layer 1"
     inkscape:groupmode="layer"
     id="layer1"
     transform="translate(-43.611153,-77.197308)">
    <path
       style="opacity:1;fill:#909085;fill-opacity:1;stroke:#909085;stroke-width:5;stroke-linecap:round;stroke-linejoin:miter;stroke-miterlimit:2.0999999;stroke-dasharray:none;stroke-dashoffset:18.89763832;stroke-opacity:1;paint-order:fill markers stroke"
       id="path873-42-5"
       sodipodi:type="arc"
       sodipodi:cx="103.78168"
       sodipodi:cy="107.38417"
       sodipodi:rx="27.686808"
       sodipodi:ry="27.686808"
       sodipodi:start="3.406684"
       sodipodi:end="2.4362577"
       d="m 77.062009,100.1303 a 27.686808,27.686808 0 0 1 27.342151,-20.425939 27.686808,27.686808 0 0 1 26.39627,21.634439 27.686808,27.686808 0 0 1 -14.6596,30.82058 27.686808,27.686808 0 0 1 -33.439734,-6.82616"
       sodipodi:open="true" />
    <path
       id="path983-20-5"
       style="opacity:1;fill:#909085;fill-opacity:1;stroke:#909085;stroke-width:5;stroke-linecap:round;stroke-linejoin:miter;stroke-miterlimit:2.0999999;stroke-dasharray:none;stroke-dashoffset:18.89763832;stroke-opacity:1;paint-order:fill markers stroke"
       d="m 82.662945,125.40211 a 19.484343,19.484343 0 0 1 -19.795708,9.89337 19.484343,19.484343 0 0 1 -16.276164,-14.99451 19.484343,19.484343 0 0 1 8.240221,-20.53893 19.484343,19.484343 0 0 1 22.126422,0.41261"
       sodipodi:type="arc"
       sodipodi:start="0.5033792"
       sodipodi:end="5.3349856"
       sodipodi:ry="19.484343"
       sodipodi:rx="19.484343"
       sodipodi:cy="116.00309"
       sodipodi:cx="65.59549"
       sodipodi:open="true" />
    <path
       style="opacity:1;fill:#07529a;fill-opacity:1;stroke:none;stroke-width:1.5;stroke-linecap:round;stroke-linejoin:miter;stroke-miterlimit:2.0999999;stroke-dasharray:none;stroke-dashoffset:18.89763832;stroke-opacity:1;paint-order:fill markers stroke"
       id="path873-7"
       sodipodi:type="arc"
       sodipodi:cx="103.8856"
       sodipodi:cy="107.3398"
       sodipodi:rx="27.686808"
       sodipodi:ry="27.686808"
       sodipodi:start="3.406684"
       sodipodi:end="2.4362577"
       d="M 77.165929,100.08593 A 27.686808,27.686808 0 0 1 104.50808,79.659989 27.686808,27.686808 0 0 1 130.90435,101.29443 27.686808,27.686808 0 0 1 116.24475,132.115 27.686808,27.686808 0 0 1 82.805016,125.28885"
       sodipodi:open="true" />
    <path
       id="path983-8"
       style="opacity:1;fill:#eab90c;fill-opacity:1;stroke:none;stroke-width:1.5;stroke-linecap:round;stroke-linejoin:miter;stroke-miterlimit:2.0999999;stroke-dasharray:none;stroke-dashoffset:18.89763832;stroke-opacity:1;paint-order:fill markers stroke"
       d="M 82.804341,125.20968 A 19.484343,19.484343 0 0 1 62.989602,135.17459 19.484343,19.484343 0 0 1 46.685759,120.1377 19.484343,19.484343 0 0 1 55.018748,99.583266 19.484343,19.484343 0 0 1 77.19098,100.14499"
       sodipodi:type="arc"
       sodipodi:start="0.4993464"
       sodipodi:end="5.3431998"
       sodipodi:ry="19.484343"
       sodipodi:rx="19.484343"
       sodipodi:cy="115.87956"
       sodipodi:cx="65.69912"
       sodipodi:open="true" />
    <path
       style="opacity:1;fill:none;fill-opacity:1;stroke:#ffffff;stroke-width:1.5;stroke-linecap:round;stroke-linejoin:miter;stroke-miterlimit:2.0999999;stroke-dasharray:none;stroke-dashoffset:18.89763832;stroke-opacity:1;paint-order:fill markers stroke"
       id="path873-42"
       sodipodi:type="arc"
       sodipodi:cx="103.88599"
       sodipodi:cy="107.33982"
       sodipodi:rx="27.686808"
       sodipodi:ry="27.686808"
       sodipodi:start="3.406684"
       sodipodi:end="2.4362577"
       d="m 77.166318,100.08595 a 27.686808,27.686808 0 0 1 27.342152,-20.425938 27.686808,27.686808 0 0 1 26.39627,21.634438 27.686808,27.686808 0 0 1 -14.65961,30.82058 27.686808,27.686808 0 0 1 -33.439725,-6.82616"
       sodipodi:open="true" />
    <path
       id="path983-20"
       style="opacity:1;fill:none;fill-opacity:1;stroke:#ffffff;stroke-width:1.5;stroke-linecap:round;stroke-linejoin:miter;stroke-miterlimit:2.0999999;stroke-dasharray:none;stroke-dashoffset:18.89763832;stroke-opacity:1;paint-order:fill markers stroke"
       d="M 82.767247,125.35775 A 19.484343,19.484343 0 0 1 62.971538,135.25112 19.484343,19.484343 0 0 1 46.695374,120.25661 19.484343,19.484343 0 0 1 54.935595,99.717683 19.484343,19.484343 0 0 1 77.062018,100.1303"
       sodipodi:type="arc"
       sodipodi:start="0.5033792"
       sodipodi:end="5.3349856"
       sodipodi:ry="19.484343"
       sodipodi:rx="19.484343"
       sodipodi:cy="115.95873"
       sodipodi:cx="65.699791"
       sodipodi:open="true" />
    <g
       aria-label="B"
       style="font-style:normal;font-variant:normal;font-weight:600;font-stretch:normal;font-size:14.58553505px;line-height:1.25;font-family:'Source Code Pro';-inkscape-font-specification:'Source Code Pro Semi-Bold';letter-spacing:0px;word-spacing:0px;fill:#909085;fill-opacity:1;stroke:#ffffff;stroke-width:2.5;stroke-linejoin:round;stroke-miterlimit:4;stroke-dasharray:none;stroke-opacity:1;paint-order:markers stroke fill"
       id="text12-2">
      <path
         d="m 106.02194,119.5914 h 7.70117 c 5.04076,0 8.71631,-2.13532 8.71631,-6.72101 0,-3.11547 -1.85528,-4.86574 -5.14577,-5.42582 v -0.14002 c 2.6954,-0.70011 3.95559,-2.80043 3.95559,-4.97075 0,-4.200639 -3.39551,-5.635855 -8.12122,-5.635855 h -7.10608 z m 4.06062,-13.47703 v -6.160934 h 2.76541 c 2.97545,0 4.41067,0.770114 4.41067,2.870434 0,2.13532 -1.2952,3.2905 -4.48068,3.2905 z m 0,10.22154 v -7.14108 h 3.22048 c 3.43052,0 5.14578,0.98015 5.14578,3.39551 0,2.59039 -1.78527,3.74557 -5.14578,3.74557 z"
         style="font-style:normal;font-variant:normal;font-weight:600;font-stretch:normal;font-size:35.00528336px;font-family:'Source Code Pro';-inkscape-font-specification:'Source Code Pro Semi-Bold';fill:#909085;fill-opacity:1;stroke:#ffffff;stroke-width:2.5;stroke-linejoin:round;stroke-miterlimit:4;stroke-dasharray:none;stroke-opacity:1;paint-order:markers stroke fill"
         id="path862" />
    </g>
    <g
       aria-label="T"
       style="font-style:normal;font-weight:normal;font-size:14.58553505px;line-height:1.25;font-family:sans-serif;letter-spacing:0px;word-spacing:0px;opacity:1;fill:#909085;fill-opacity:1;stroke:#ffffff;stroke-width:2.5;stroke-linejoin:round;stroke-miterlimit:4;stroke-dasharray:none;stroke-opacity:1;paint-order:markers stroke fill"
       id="text12-5">
      <path
         d="m 91.063022,119.5914 h 4.060613 v -19.46294 h 7.211085 V 96.697945 H 83.851934 v 3.430515 h 7.211088 z"
         style="font-style:normal;font-variant:normal;font-weight:600;font-stretch:normal;font-size:35.00528336px;font-family:'Source Code Pro';-inkscape-font-specification:'Source Code Pro Semi-Bold';fill:#909085;fill-opacity:1;stroke:#ffffff;stroke-width:2.5;stroke-linejoin:round;stroke-miterlimit:4;stroke-dasharray:none;stroke-opacity:1;paint-order:markers stroke fill"
         id="path865" />
    </g>
    <g
       aria-label="x"
       style="font-style:normal;font-variant:normal;font-weight:normal;font-stretch:normal;font-size:15.73999023px;line-height:1.25;font-family:'Source Code Pro';-inkscape-font-specification:'Source Code Pro';letter-spacing:0px;word-spacing:0px;fill:#909085;fill-opacity:1;stroke:#ffffff;stroke-width:2.5;stroke-linejoin:round;stroke-miterlimit:4;stroke-dasharray:none;stroke-opacity:1;paint-order:markers stroke fill"
       id="text12-9">
      <path
         d="m 56.372661,125.47789 h 3.324286 l 3.022078,-4.23091 c 0.755519,-1.17105 1.511039,-2.22878 2.266559,-3.32429 h 0.151104 c 0.793295,1.05773 1.662143,2.26656 2.417662,3.32429 l 3.210958,4.23091 h 3.399838 l -7.026332,-9.25511 6.535245,-9.10402 h -3.286511 l -2.757646,3.96648 c -0.642192,1.01995 -1.397711,2.15323 -2.077679,3.17318 h -0.151104 c -0.755519,-1.01995 -1.511039,-2.11545 -2.15323,-3.09763 l -2.908751,-4.04203 h -3.437614 l 6.459693,8.83958 z"
         style="font-style:normal;font-variant:normal;font-weight:normal;font-stretch:normal;font-size:37.77597809px;font-family:'Source Code Pro';-inkscape-font-specification:'Source Code Pro';fill:#909085;fill-opacity:1;stroke:#ffffff;stroke-width:2.5;stroke-linejoin:round;stroke-miterlimit:4;stroke-dasharray:none;stroke-opacity:1;paint-order:markers stroke fill"
         id="path859" />
    </g>
    <g
       aria-label="x"
       style="font-style:normal;font-variant:normal;font-weight:normal;font-stretch:normal;font-size:15.73999023px;line-height:1.25;font-family:'Source Code Pro';-inkscape-font-specification:'Source Code Pro';letter-spacing:0px;word-spacing:0px;fill:#909085;fill-opacity:1;stroke:none;stroke-width:2.5;stroke-linejoin:round;stroke-miterlimit:4;stroke-dasharray:none;stroke-opacity:1;paint-order:markers stroke fill"
       id="text12-9-3">
      <path
         d="m 56.372661,125.47789 h 3.324286 l 3.022078,-4.23091 c 0.755519,-1.17105 1.511039,-2.22878 2.266559,-3.32429 h 0.151104 c 0.793295,1.05773 1.662143,2.26656 2.417662,3.32429 l 3.210958,4.23091 h 3.399838 l -7.026332,-9.25511 6.535245,-9.10402 h -3.286511 l -2.757646,3.96648 c -0.642192,1.01995 -1.397711,2.15323 -2.077679,3.17318 h -0.151104 c -0.755519,-1.01995 -1.511039,-2.11545 -2.15323,-3.09763 l -2.908751,-4.04203 h -3.437614 l 6.459693,8.83958 z"
         style="font-style:normal;font-variant:normal;font-weight:normal;font-stretch:normal;font-size:37.77597809px;font-family:'Source Code Pro';-inkscape-font-specification:'Source Code Pro';fill:#909085;fill-opacity:1;stroke:none;stroke-width:2.5;stroke-linejoin:round;stroke-miterlimit:4;stroke-dasharray:none;stroke-opacity:1;paint-order:markers stroke fill"
         id="path856" />
    </g>
    <g
       aria-label="T"
       style="font-style:normal;font-weight:normal;font-size:14.58553505px;line-height:1.25;font-family:sans-serif;letter-spacing:0px;word-spacing:0px;opacity:1;fill:#909085;fill-opacity:1;stroke:none;stroke-width:2.5;stroke-linejoin:round;stroke-miterlimit:4;stroke-dasharray:none;stroke-opacity:1;paint-order:markers stroke fill"
       id="text12-5-7">
      <path
         d="m 91.063022,119.5914 h 4.060613 v -19.46294 h 7.211085 V 96.697945 H 83.851934 v 3.430515 h 7.211088 z"
         style="font-style:normal;font-variant:normal;font-weight:600;font-stretch:normal;font-size:35.00528336px;font-family:'Source Code Pro';-inkscape-font-specification:'Source Code Pro Semi-Bold';fill:#909085;fill-opacity:1;stroke:none;stroke-width:2.5;stroke-linejoin:round;stroke-miterlimit:4;stroke-dasharray:none;stroke-opacity:1;paint-order:markers stroke fill"
         id="path850" />
    </g>
    <g
       aria-label="B"
       style="font-style:normal;font-variant:normal;font-weight:600;font-stretch:normal;font-size:14.58553505px;line-height:1.25;font-family:'Source Code Pro';-inkscape-font-specification:'Source Code Pro Semi-Bold';letter-spacing:0px;word-spacing:0px;fill:#909085;fill-opacity:1;stroke:none;stroke-width:2.5;stroke-linejoin:round;stroke-miterlimit:4;stroke-dasharray:none;stroke-opacity:1;paint-order:markers stroke fill"
       id="text12-2-3">
      <path
         d="m 106.02194,119.5914 h 7.70117 c 5.04076,0 8.71631,-2.13532 8.71631,-6.72101 0,-3.11547 -1.85528,-4.86574 -5.14577,-5.42582 v -0.14002 c 2.6954,-0.70011 3.95559,-2.80043 3.95559,-4.97075 0,-4.200639 -3.39551,-5.635855 -8.12122,-5.635855 h -7.10608 z m 4.06062,-13.47703 v -6.160934 h 2.76541 c 2.97545,0 4.41067,0.770114 4.41067,2.870434 0,2.13532 -1.2952,3.2905 -4.48068,3.2905 z m 0,10.22154 v -7.14108 h 3.22048 c 3.43052,0 5.14578,0.98015 5.14578,3.39551 0,2.59039 -1.78527,3.74557 -5.14578,3.74557 z"
         style="font-style:normal;font-variant:normal;font-weight:600;font-stretch:normal;font-size:35.00528336px;font-family:'Source Code Pro';-inkscape-font-specification:'Source Code Pro Semi-Bold';fill:#909085;fill-opacity:1;stroke:none;stroke-width:2.5;stroke-linejoin:round;stroke-miterlimit:4;stroke-dasharray:none;stroke-opacity:1;paint-order:markers stroke fill"
         id="path853" />
    </g>
  </g>
</svg>
